<?xml version="1.0" encoding="UTF-8"?>
<!DOCTYPE svg PUBLIC "-//W3C//DTD SVG 1.0//EN" "http://www.w3.org/TR/2001/REC-SVG-20010904/DTD/svg10.dtd">
<!-- Creator: CorelDRAW -->
<svg xmlns="http://www.w3.org/2000/svg" xml:space="preserve" width="50mm" height="50mm" version="1.0" style="shape-rendering:geometricPrecision; text-rendering:geometricPrecision; image-rendering:optimizeQuality; fill-rule:evenodd; clip-rule:evenodd"
viewBox="0 0 4998.9 4998.9"
 xmlns:xlink="http://www.w3.org/1999/xlink"
 xmlns:xodm="http://www.corel.com/coreldraw/odm/2003">
 <defs>
  <style type="text/css">
   <![CDATA[
    .fil0 {fill:#282829}
   ]]>
  </style>
 </defs>
 <g id="Camada_x0020_1">
  <metadata id="CorelCorpID_0Corel-Layer"/>
  <path class="fil0" d="M2499.47 0c585.42,0 1123.88,201.37 1549.8,538.53l-403.92 403.93c-320.65,-236.43 -716.94,-376.24 -1145.88,-376.24 -429.02,0 -825.27,139.81 -1145.97,376.19l-403.92 -403.92c425.97,-337.13 964.42,-538.49 1549.89,-538.49zm1960.9 949.54c337.17,426.01 538.53,964.42 538.53,1549.85 0,585.51 -201.37,1123.87 -538.49,1549.93l-403.92 -403.92c236.38,-320.7 376.19,-716.99 376.19,-1146.01 0,-428.94 -139.81,-825.23 -376.24,-1145.93l403.93 -403.92zm-411.05 3510.79c-425.93,337.21 -964.43,538.57 -1549.85,538.57 -585.47,0 -1123.96,-201.37 -1549.89,-538.57l403.92 -403.93c320.7,236.43 716.95,376.24 1145.97,376.24 428.94,0 825.23,-139.81 1145.92,-376.24l403.93 403.93zm-3510.83 -411.01c-337.17,-426.01 -538.49,-964.38 -538.49,-1549.93 0,-585.43 201.33,-1123.88 538.49,-1549.89l403.92 403.92c-236.43,320.69 -376.23,717.03 -376.23,1145.97 0,429.06 139.8,825.31 376.23,1146.01l-403.92 403.92z"/>
 </g>
</svg>
